#!OML:ASF H:\LiuWeirdWalks\Patient Classification 1\Patient 1\Session 1\male.ASF
:FULLY-SPECIFIED
:DEGREES
407
root -0.482284 18.0691 -20.3565 -1.24434 10.2347 -7.254
lowerback 4.04482 2.46388 6.5598
upperback -0.0172075 3.67558 3.30223
thorax -2.09439 1.78268 -0.467455
lowerneck -14.9715 -4.07966 0.457921
upperneck 22.0887 -4.99507 -3.25431
head 9.3245 -2.64068 -1.80635
rclavicle -3.82909e-014 -1.78906e-014
rhumerus -28.3068 -9.60758 -79.0296
rradius 29.6715
rwrist -8.46597
rhand -16.4242 -3.64098
rfingers 7.12502
rthumb 9.79088 -33.3934
lclavicle -3.82909e-014 -1.78906e-014
lhumerus -46.9835 1.55441 83.8597
lradius 39.1514
lwrist 11.8888
lhand -13.0304 0.808426
lfingers 7.12502
lthumb 13.0639 30.3793
rfemur 6.98109 -3.60908 34.0072
rtibia 8.842
rfoot -8.53671 -18.1907
rtoes -1.02137
lfemur -32.4012 -2.83374 -9.6648
ltibia 24.8104
lfoot -14.4184 12.6257
ltoes -18.1445
408
root -0.474992 18.063 -20.3202 -1.25404 10.1449 -7.35575
lowerback 4.01026 2.52666 6.64441
upperback -0.0490714 3.76233 3.31792
thorax -2.0991 1.82439 -0.501072
lowerneck -14.8956 -4.12979 0.398737
upperneck 22.0698 -5.0593 -3.2166
head 9.30532 -2.67124 -1.78875
rclavicle 2.30342e-014 6.24184e-014
rhumerus -28.2964 -9.73072 -78.973
rradius 29.4535
rwrist -8.30376
rhand -16.4655 -3.68265
rfingers 7.12502
rthumb 9.75106 -33.4369
lclavicle 2.30342e-014 6.24184e-014
lhumerus -47.0764 1.60211 83.8025
lradius 39.2789
lwrist 11.9528
lhand -13.0265 0.778972
lfingers 7.12502
lthumb 13.0677 30.3496
rfemur 7.19938 -3.54839 34.1103
rtibia 8.66491
rfoot -8.49203 -18.17
rtoes -1.09877
lfemur -32.3874 -2.87152 -9.53935
ltibia 24.7741
lfoot -14.42 12.6586
ltoes -18.2323
409
root -0.467543 18.0573 -20.2839 -1.24863 10.059 -7.44
lowerback 3.95715 2.58813 6.70648
upperback -0.0763522 3.84411 3.33199
thorax -2.09005 1.86432 -0.522531
lowerneck -14.8489 -4.17623 0.332758
upperneck 22.0628 -5.11784 -3.17374
head 9.29626 -2.69914 -1.76875
rclavicle -5.41688e-015 2.14687e-014
rhumerus -28.2838 -9.85314 -78.9144
rradius 29.2493
rwrist -8.13803
rhand -16.5064 -3.71172
rfingers 7.12502
rthumb 9.71158 -33.4678
lclavicle -5.41688e-015 2.14687e-014
lhumerus -47.1566 1.66305 83.7415
lradius 39.4034
lwrist 12.0001
lhand -13.0135 0.798329
lfingers 7.12502
lthumb 13.0802 30.3682
rfemur 7.39296 -3.4877 34.1943
rtibia 8.51483
rfoot -8.46494 -18.1541
rtoes -1.18705
lfemur -32.3722 -2.92025 -9.43004
ltibia 24.7258
lfoot -14.4292 12.6823
ltoes -18.2859
410
root -0.459654 18.0516 -20.247 -1.22921 9.99703 -7.48876
lowerback 3.88707 2.64514 6.73383
upperback -0.105011 3.91647 3.33383
thorax -2.07469 1.90004 -0.536061
lowerneck -14.8064 -4.20186 0.333104
upperneck 22.0217 -5.15192 -3.18259
head 9.27301 -2.71617 -1.77356
rclavicle 4.46396e-014 4.21423e-014
rhumerus -28.2741 -9.99183 -78.8565
rradius 29.0514
rwrist -7.97779
rhand -16.5474 -3.75009
rfingers 7.12502
rthumb 9.67209 -33.508
lclavicle 4.46396e-014 4.21423e-014
lhumerus -47.2322 1.72086 83.6749
lradius 39.5151
lwrist 12.0182
lhand -13.0084 0.781007
lfingers 7.12502
lthumb 13.0851 30.3505
rfemur 7.57236 -3.44698 34.2365
rtibia 8.38024
rfoot -8.45435 -18.1408
rtoes -1.28762
lfemur -32.358 -2.98009 -9.36629
ltibia 24.6663
lfoot -14.4567 12.6857
ltoes -18.352
411
root -0.451869 18.0456 -20.2098 -1.20816 9.93147 -7.54539
lowerback 3.81181 2.70353 6.7688
upperback -0.125606 3.98986 3.33466
thorax -2.04736 1.93665 -0.55419
lowerneck -14.807 -4.22408 0.354152
upperneck 21.9883 -5.18243 -3.20775
head 9.25935 -2.7317 -1.78834
rclavicle -2.14439e-014 -4.6118e-014
rhumerus -28.2488 -10.1513 -78.803
rradius 28.8559
rwrist -7.80315
rhand -16.5739 -3.73494
rfingers 7.12502
rthumb 9.64652 -33.4941
lclavicle -2.14439e-014 -4.6118e-014
lhumerus -47.2795 1.77889 83.6004
lradius 39.6059
lwrist 12.0285
lhand -12.9948 0.756422
lfingers 7.12502
lthumb 13.0982 30.3251
rfemur 7.75228 -3.40234 34.288
rtibia 8.2426
rfoot -8.45203 -18.1261
rtoes -1.37463
lfemur -32.3406 -3.03954 -9.29095
ltibia 24.6041
lfoot -14.4989 12.6944
ltoes -18.4251
412
root -0.443706 18.0396 -20.1719 -1.1892 9.8741 -7.6049
lowerback 3.73101 2.75841 6.80807
upperback -0.145808 4.05811 3.33398
thorax -2.01632 1.97076 -0.575495
lowerneck -14.7767 -4.27512 0.295595
upperneck 21.9381 -5.25213 -3.15485
head 9.23827 -2.76342 -1.7668
rclavicle 1.48467e-014 1.23246e-014
rhumerus -28.2438 -10.3064 -78.7545
rradius 28.6877
rwrist -7.67209
rhand -16.6059 -3.7114
rfingers 7.12502
rthumb 9.61556 -33.472
lclavicle 1.48467e-014 1.23246e-014
lhumerus -47.3217 1.83382 83.5202
lradius 39.6772
lwrist 12.0228
lhand -12.9831 0.716298
lfingers 7.12502
lthumb 13.1094 30.2842
rfemur 7.93989 -3.36582 34.3403
rtibia 8.09685
rfoot -8.45387 -18.1093
rtoes -1.45702
lfemur -32.3171 -3.09818 -9.218
ltibia 24.5425
lfoot -14.5425 12.7079
ltoes -18.5291
413
root -0.435474 18.033 -20.1337 -1.18355 9.81495 -7.69153
lowerback 3.66231 2.80807 6.87364
upperback -0.161555 4.12154 3.34121
thorax -1.98646 2.00227 -0.60325
lowerneck -14.7932 -4.31523 0.246996
upperneck 21.9311 -5.30604 -3.1128
head 9.2407 -2.78796 -1.75123
rclavicle 7.25564e-014 4.01545e-014
rhumerus -28.2328 -10.4392 -78.7213
rradius 28.5393
rwrist -7.60099
rhand -16.6565 -3.72539
rfingers 7.12502
rthumb 9.56676 -33.4882
lclavicle 7.25564e-014 4.01545e-014
lhumerus -47.3528 1.89602 83.4353
lradius 39.7316
lwrist 12.027
lhand -12.9541 0.705768
lfingers 7.12502
lthumb 13.1374 30.2719
rfemur 8.14683 -3.33066 34.4222
rtibia 7.93253
rfoot -8.45403 -18.0882
rtoes -1.52396
lfemur -32.2864 -3.15075 -9.11732
ltibia 24.4889
lfoot -14.5752 12.7312
ltoes -18.6115
414
root -0.427 18.0262 -20.0955 -1.17502 9.75968 -7.7823
lowerback 3.60113 2.85105 6.9399
upperback -0.186712 4.17754 3.35232
thorax -1.97116 2.02953 -0.627678
lowerneck -14.7327 -4.25443 0.485495
upperneck 21.9031 -5.24483 -3.26437
head 9.20846 -2.75674 -1.832
rclavicle -1.87852e-014 -4.25399e-014
rhumerus -28.2407 -10.5286 -78.7035
rradius 28.4211
rwrist -7.619
rhand -16.7359 -3.82405
rfingers 7.12502
rthumb 9.49018 -33.5904
lclavicle -1.87852e-014 -4.25399e-014
lhumerus -47.3886 1.97351 83.3466
lradius 39.7633
lwrist 12.0314
lhand -12.9272 0.690247
lfingers 7.12502
lthumb 13.1634 30.2547
rfemur 8.35416 -3.29831 34.5075
rtibia 7.75904
rfoot -8.44787 -18.0629
rtoes -1.58842
lfemur -32.2573 -3.20261 -9.01523
ltibia 24.4398
lfoot -14.5969 12.7673
ltoes -18.7212
415
root -0.418212 18.0194 -20.0572 -1.16394 9.71356 -7.86714
lowerback 3.55057 2.88476 7.0005
upperback -0.214433 4.22216 3.36447
thorax -1.96556 2.05086 -0.648104
lowerneck -14.6316 -4.0759 0.992767
upperneck 21.8425 -5.04747 -3.57778
head 9.14775 -2.65786 -1.9939
rclavicle 3.59738e-014 -3.22031e-014
rhumerus -28.2532 -10.5844 -78.6995
rradius 28.3273
rwrist -7.70372
rhand -16.8307 -3.96107
rfingers 7.12502
rthumb 9.39872 -33.7315
lclavicle 3.59738e-014 -3.22031e-014
lhumerus -47.426 2.06083 83.2577
lradius 39.783
lwrist 12.038
lhand -12.9001 0.700736
lfingers 7.12502
lthumb 13.1894 30.2635
rfemur 8.55474 -3.27395 34.5841
rtibia 7.59708
rfoot -8.44306 -18.036
rtoes -1.67
lfemur -32.226 -3.24631 -8.92988
ltibia 24.391
lfoot -14.6102 12.8081
ltoes -18.8281
